<?xml version="1.0" encoding="UTF-8"?>
<svg xmlns="http://www.w3.org/2000/svg" xmlns:xlink="http://www.w3.org/1999/xlink" width="375pt" height="374.999991pt" viewBox="0 0 375 374.999991" version="1.2">
<defs>
<clipPath id="clip1">
  <path d="M 176 151 L 204 151 L 204 178.082031 L 176 178.082031 Z M 176 151 "/>
</clipPath>
</defs>
<g id="surface1">
<path style=" stroke:none;fill-rule:nonzero;fill:rgb(100%,74.119568%,34.899902%);fill-opacity:1;" d="M 170.570312 177.75 C 159.09375 164.382812 179.441406 148.035156 179.441406 148.035156 C 180.949219 147.796875 180.457031 143.375 177.390625 142.789062 C 174.511719 142.238281 169.839844 148.238281 168.492188 146.726562 C 166.554688 144.554688 168.496094 138.566406 168.640625 132.675781 C 168.796875 126.78125 163.980469 127.582031 163.675781 131.902344 C 163.359375 136.226562 162.828125 146.300781 161.609375 146.460938 C 160.394531 146.628906 159.851562 135.601562 159.65625 130.058594 C 159.460938 124.511719 154.320312 123.332031 154.429688 130.363281 C 154.550781 137.511719 155.90625 146.484375 154.71875 146.894531 C 153.535156 147.304688 152.054688 136.308594 151.640625 132.082031 C 151.222656 127.863281 146.105469 128.554688 146.621094 133.160156 C 147.140625 137.765625 150.121094 148.460938 149.242188 148.972656 C 148.375 149.496094 146.863281 146.585938 146.0625 141.941406 C 145.261719 137.296875 140.785156 138.191406 142.363281 143.238281 C 142.363281 143.238281 144.640625 174.179688 170.941406 178 "/>
<path style=" stroke:none;fill-rule:nonzero;fill:rgb(0%,76.078796%,79.60968%);fill-opacity:1;" d="M 205.210938 164.519531 C 216.460938 150.960938 195.84375 134.957031 195.84375 134.957031 C 194.332031 134.746094 194.753906 130.3125 197.804688 129.675781 C 200.675781 129.078125 205.445312 135 206.769531 133.464844 C 208.671875 131.261719 206.632812 125.304688 206.386719 119.417969 C 206.132812 113.527344 210.960938 114.246094 211.339844 118.5625 C 211.726562 122.878906 212.425781 132.941406 213.648438 133.082031 C 214.867188 133.230469 215.222656 122.199219 215.324219 116.648438 C 215.429688 111.101562 220.550781 109.835938 220.554688 116.867188 C 220.554688 124.019531 219.347656 133.011719 220.542969 133.402344 C 221.734375 133.792969 223.03125 122.773438 223.375 118.539062 C 223.722656 114.316406 228.851562 114.917969 228.410156 119.535156 C 227.96875 124.144531 225.167969 134.890625 226.054688 135.390625 C 226.929688 135.894531 228.394531 132.960938 229.117188 128.304688 C 229.839844 123.648438 234.328125 124.464844 232.835938 129.539062 C 232.835938 129.539062 231.074219 160.515625 204.839844 164.773438 "/>
<g clip-path="url(#clip1)" clip-rule="nonzero">
<path style=" stroke:none;fill-rule:nonzero;fill:rgb(84.709167%,16.079712%,18.818665%);fill-opacity:1;" d="M 196.820312 151.460938 C 191.683594 151.488281 190.191406 156.449219 190.152344 156.574219 C 190.113281 156.449219 188.617188 151.503906 183.480469 151.535156 C 178.277344 151.5625 175.507812 155.910156 177.074219 161.605469 C 179.03125 168.738281 190.078125 178.023438 190.15625 178.085938 L 190.15625 178.089844 L 190.160156 178.089844 L 190.160156 178.085938 C 190.234375 178.023438 201.28125 168.617188 203.234375 161.460938 C 204.796875 155.75 202.023438 151.429688 196.820312 151.460938 "/>
</g>
</g>
</svg>
